<?xml version="1.0" encoding="UTF-8" standalone="no"?>
<!-- Created with Inkscape (http://www.inkscape.org/) -->

<svg
   width="512mm"
   height="512mm"
   viewBox="0 0 512 512"
   version="1.1"
   id="svg1"
   xml:space="preserve"
   inkscape:version="1.3.2 (091e20e, 2023-11-25, custom)"
   sodipodi:docname="飞机杯社区（迫真）.svg"
   inkscape:export-filename="飞机杯社区（迫真）.png"
   inkscape:export-xdpi="96"
   inkscape:export-ydpi="96"
   xmlns:inkscape="http://www.inkscape.org/namespaces/inkscape"
   xmlns:sodipodi="http://sodipodi.sourceforge.net/DTD/sodipodi-0.dtd"
   xmlns="http://www.w3.org/2000/svg"
   xmlns:svg="http://www.w3.org/2000/svg"><sodipodi:namedview
     id="namedview1"
     pagecolor="#ffffff"
     bordercolor="#999999"
     borderopacity="1"
     inkscape:showpageshadow="2"
     inkscape:pageopacity="0"
     inkscape:pagecheckerboard="0"
     inkscape:deskcolor="#d1d1d1"
     inkscape:document-units="mm"
     showguides="true"
     inkscape:zoom="0.3288668"
     inkscape:cx="539.73219"
     inkscape:cy="550.3748"
     inkscape:window-width="1920"
     inkscape:window-height="1138"
     inkscape:window-x="-6"
     inkscape:window-y="-6"
     inkscape:window-maximized="1"
     inkscape:current-layer="layer2"
     inkscape:export-bgcolor="#ffffffff" /><defs
     id="defs1" /><g
     inkscape:label="图层 1"
     inkscape:groupmode="layer"
     id="layer1"><g
       id="g1"
       transform="matrix(0.43584798,0,0,0.43584798,56.587205,18.153422)"><path
         d="M 896.042,426.692 H 725.768 c -23.554,0 -42.676,19.09 -42.676,42.646 v 79.716 c 2.75,-20.918 20.62,-37.054 42.3,-37.054 h 85.292 c 23.558,0 42.68,19.09 42.68,42.678 v 213.264 c 0,23.556 -19.122,42.678 -42.68,42.678 h -85.292 c -21.682,0 -39.55,-16.152 -42.3,-37.054 v 79.67 c 0,23.556 19.122,42.678 42.676,42.678 h 170.274 c 23.558,0 42.618,-19.122 42.618,-42.678 V 469.338 c 0,-23.556 -19.058,-42.646 -42.618,-42.646 z"
         fill="#8cc153"
         p-id="10257"
         id="path1"
         style="fill:#0ca763;fill-opacity:1" /><path
         d="m 725.208,938.59 c 0,47.114 -38.178,85.292 -85.292,85.292 H 170.664 c -47.114,0 -85.324,-38.18 -85.324,-85.292 V 298.72 h 639.868 z"
         fill="#a0d468"
         p-id="10258"
         id="path2"
         style="display:inline;fill:#12c274;fill-opacity:1;fill-rule:nonzero;stroke-width:0.999695;stroke-dasharray:none" /><path
         d="m 592.488,221.348 0.124,0.14 c -0.062,-0.062 -5.06,-6.592 -7.248,-14.964 -2.186,-8.67 -0.5,-15.012 5.624,-21.214 17.372,-17.386 23.058,-39.976 16.184,-63.61 C 602.486,105.828 593.55,94.612 592.364,93.206 V 93.19 c 0,0 0,-0.032 -0.062,-0.046 V 93.16 A 21.2,21.2 0 0 0 575.93,85.428 c -11.808,0 -21.372,9.56 -21.372,21.34 0,5.138 1.812,9.872 4.876,13.558 l -0.062,-0.094 c 0.062,0.046 5,6.312 7.062,14.356 2.186,8.28 0.498,14.45 -5.624,20.62 -17.292,17.356 -23.042,40.068 -16.184,63.986 4.624,16.184 13.684,27.666 14.684,28.93 v -0.016 c 3.938,4.842 9.874,7.952 16.622,7.952 11.748,0 21.308,-9.544 21.308,-21.322 a 21.35,21.35 0 0 0 -4.752,-13.39 z m -33.054,-101.008 0.062,0.032 z M 442.258,50.792 C 435.884,26.908 423.636,10.348 422.262,8.536 h -0.032 c -3.906,-5.108 -10.03,-8.42 -16.964,-8.42 -11.78,0 -21.308,9.544 -21.308,21.324 0,4.826 1.592,9.248 4.31,12.808 l -0.03,0.016 c 0.092,0.124 8.966,12.202 13.09,28.634 4.906,19.666 0.968,36.366 -12.028,51.066 -22.776,25.76 -30.056,57.376 -20.996,91.416 6.342,23.884 18.622,40.444 19.996,42.256 l 0.032,-0.016 a 21.206,21.206 0 0 0 16.934,8.436 c 11.778,0 21.338,-9.544 21.338,-21.322 a 21.18,21.18 0 0 0 -4.312,-12.81 l 0.032,-0.016 c -0.092,-0.124 -8.998,-12.2 -13.09,-28.634 -4.906,-19.666 -0.968,-36.366 12.028,-51.066 22.776,-25.758 30.026,-57.376 20.996,-91.416 z M 265.892,121.7 C 261.236,105.828 252.27,94.612 251.114,93.206 V 93.19 c -0.032,-0.016 -0.032,-0.032 -0.032,-0.032 -3.936,-4.716 -9.842,-7.732 -16.434,-7.732 -11.78,0 -21.338,9.56 -21.338,21.34 0,5.138 1.842,9.872 4.874,13.558 l -0.062,-0.094 c 0.032,0.046 4.968,6.312 7.092,14.356 2.156,8.28 0.468,14.45 -5.686,20.62 -17.278,17.356 -23.026,40.068 -16.152,63.986 4.656,16.184 13.654,27.666 14.684,28.93 v -0.016 a 21.254,21.254 0 0 0 16.59,7.952 c 11.778,0 21.338,-9.544 21.338,-21.322 a 21.16,21.16 0 0 0 -4.75,-13.388 h 0.032 l 0.094,0.14 c -0.062,-0.062 -5.062,-6.592 -7.218,-14.964 -2.25,-8.67 -0.562,-15.012 5.624,-21.214 17.31,-17.388 23.026,-39.976 16.122,-63.61 z m -47.708,-1.36 c 0.032,0 0.032,0.016 0.062,0.032 h -0.032 z"
         fill="#e6e9ed"
         p-id="10259"
         id="path3" /></g></g><g
     inkscape:groupmode="layer"
     id="layer2"
     inkscape:label="图层 2"
     style="display:inline"><path
       d="m 283.07663,423.00096 -35.29983,-98.70295 -36.20557,34.2354 6.03687,43.9263 -18.41238,18.74597 -29.89854,-48.29478 -52.15547,-35.55406 18.17407,-18.63502 46.07108,9.07169 34.09238,-37.9217 -99.56092,-36.88843 29.78735,-30.34333 110.39559,21.43104 35.72849,-35.74464 c 19.46112,-19.6835 38.14388,-23.38503 49.51838,-11.7879 4.49583,4.55948 17.06211,21.73279 -11.16803,50.48732 l -36.07822,36.06253 18.93651,109.3946 z m -28.53234,-126.96495 34.95033,97.73404 6.48168,-6.59308 -18.96859,-109.50581 41.87701,-41.82903 c 11.94663,-12.16925 16.22006,-22.97188 11.12029,-28.151 -1.33436,-1.35029 -2.76422,-1.95402 -4.65477,-1.95402 -2.60549,0 -9.97648,1.33436 -22.27287,13.78946 l -41.71784,41.76581 -110.31599,-21.43104 -6.6247,6.7518 98.49626,36.50686 -55.7456,62.0053 -42.75042,-8.41995 37.50784,26.40348 18.30119,29.54903 -5.51274,-40.0499 z"
       fill="#ffffff"
       p-id="7946"
       id="path1-7"
       style="stroke-width:0.227557" /></g></svg>
